<svg width="200" height="200" viewBox="0 0 200 200" fill="none" xmlns="http://www.w3.org/2000/svg">
  <rect width="200" height="200" rx="20" fill="white"/>
  <path d="M30 50L50 120H60L80 50H70L55 105L40 50H30Z" fill="#0284C7"/>
  <path d="M85 50H95V120H85V50Z" fill="#0284C7"/>
  <path d="M105 50H125L145 90L165 50H185L155 105V120H145V105L115 50H105Z" fill="#0284C7"/>
  <path d="M135 130H145V150H135V130Z" fill="#14B8A6"/>
  <path d="M150 130H165C170 130 172.5 132.5 172.5 137.5C172.5 142.5 170 145 165 145H155V150H180V145H175V130H150ZM155 140H160C162.5 140 165 140 165 137.5C165 135 162.5 135 160 135H155V140Z" fill="#14B8A6"/>
  <path d="M185 130H195V150H185V130Z" fill="#14B8A6"/>
</svg> 